<svg height="512pt" viewBox="0 -2 512 511" width="512pt" xmlns="http://www.w3.org/2000/svg"><path d="m170.871094 434.515625c-66.769532-44.511719-106.871094-119.449219-106.871094-199.695313v-143.550781l4.640625-.320312c69.578125-4.976563 135.511719-33.015625 187.359375-79.679688 25.734375 23.183594 55.148438 41.921875 87.039062 55.4375 31.863282 13.597657 65.765626 21.789063 100.320313 24.242188l4.640625.320312v143.550781c0 80.246094-40.101562 155.183594-106.871094 199.695313l-85.128906 56.753906zm0 0" fill="#ff8a65"/><path d="m188.625 407.890625c-57.921875-38.527344-92.699219-103.503906-92.625-173.070313v-114.6875c58.164062-8.558593 113.210938-31.722656 160-67.320312 22.929688 17.53125 47.980469 32.09375 74.558594 43.351562 27.328125 11.671876 56.058594 19.738282 85.464844 24v114.65625c.070312 69.570313-34.714844 134.550782-92.648438 173.070313l-67.375 44.914063zm0 0" fill="#ffe082"/><path d="m376 251.269531c0 66.273438-53.726562 120-120 120s-120-53.726562-120-120c0-66.277343 53.726562-120 120-120s120 53.722657 120 120zm0 0" fill="#a6e7ff"/><path d="m344 319.765625c.003906-7.347656-4.996094-13.75-12.121094-15.53125l-51.878906-12.964844h-48l-51.878906 12.964844c-7.125 1.78125-12.125 8.183594-12.121094 15.53125v12.894531c22.644531 24.605469 54.558594 38.609375 88 38.609375s65.355469-14.003906 88-38.609375zm0 0" fill="#ff7043"/><path d="m280 291.269531s0 16-24 16-24-16-24-16v-40h48zm0 0" fill="#ffd54f"/><path d="m288 203.269531v47.742188l-21.335938 16.257812h-21.328124l-21.335938-16.257812v-47.742188zm0 0" fill="#ffe082"/><path d="m208 203.269531c4.703125-18.808593 21.597656-32 40.984375-32h23.015625c8.835938 0 16 7.160157 16 16v16zm0 0" fill="#90a4ae"/><g fill="#fff"><path d="m104 234.820312h-16v-121.601562l6.839844-1c26.808594-3.9375 53.046875-11.078125 78.152344-21.269531l6.015624 14.832031c-24.148437 9.792969-49.304687 16.902344-75.007812 21.199219zm0 0"/><path d="m256 462.402344-71.800781-47.839844 8.878906-13.308594 62.921875 41.917969 62.921875-41.917969 8.878906 13.308594zm0 0"/><path d="m408 120.15625h16v114.664062h-16zm0 0"/></g><path d="m346.167969 59.347656c-31.070313-13.171875-59.730469-31.429687-84.800781-54.023437l-5.367188-4.824219-5.351562 4.800781c-50.578126 45.378907-114.789063 72.683594-182.558594 77.640625l-12.089844.855469v151.023437c-.09375 82.9375 41.351562 160.40625 110.398438 206.351563l89.601562 59.695313 89.601562-59.710938c69.039063-45.941406 110.488282-123.40625 110.398438-206.335938v-151.023437l-12.070312-.800781c-33.675782-2.386719-66.71875-10.378906-97.761719-23.648438zm93.832031 175.472656c.082031 77.59375-38.707031 150.066407-103.3125 193.039063l-80.6875 53.808594-80.6875-53.808594c-64.605469-42.972656-103.394531-115.445313-103.3125-193.039063v-136.105468c67.894531-5.5625 132.296875-32.445313 184-76.800782 25.089844 21.632813 53.394531 39.230469 83.894531 52.152344 31.816407 13.582032 65.621094 21.90625 100.105469 24.648438zm0 0"/><path d="m128 251.269531c0 70.691407 57.308594 128 128 128s128-57.308593 128-128c0-70.695312-57.308594-128-128-128-70.65625.082031-127.917969 57.339844-128 128zm208 78.230469c-21.019531 21.589844-49.871094 33.769531-80 33.769531s-58.980469-12.179687-80-33.769531v-9.734375c-.003906-3.675781 2.5-6.878906 6.0625-7.769531l44.449219-11.128906c4.488281 7.816406 12.511719 12.945312 21.488281 13.738281v32.664062h16v-32.664062c8.976562-.792969 17-5.921875 21.488281-13.738281l44.449219 11.113281c3.5625.890625 6.066406 4.09375 6.0625 7.765625zm-72-70.230469h-16l-16-12.21875v-35.78125h32v-16h-44c6.269531-9.96875 17.21875-16.011719 28.992188-16h23.007812c4.417969 0 8 3.582031 8 8v59.78125zm8 13.992188v17.804687c-.097656 1.417969-1.34375 8.203125-16 8.203125s-15.910156-6.859375-16-8v-18.007812l2.632812 2.007812h26.734376zm96-21.992188c-.007812 21.269531-6.117188 42.09375-17.601562 60-2.761719-7.355469-8.960938-12.886719-16.582032-14.792969l-45.816406-11.457031v-23.953125l8-6.09375v-67.703125c0-13.257812-10.746094-24-24-24h-23.015625c-23.0625-.027343-43.171875 15.675781-48.746094 38.054688l-2.484375 9.945312h18.246094v43.703125l8 6.09375v23.953125l-45.824219 11.457031c-7.617187 1.910157-13.8125 7.4375-16.574219 14.792969-25.578124-40.214843-22.890624-92.210937 6.695313-129.574219 29.585937-37.363281 79.582031-51.898437 124.585937-36.21875 45.007813 15.679688 75.152344 58.132813 75.117188 105.792969zm0 0"/><path d="m496 411.269531h16v96h-16zm0 0"/><path d="m464 443.269531h16v64h-16zm0 0"/><path d="m432 475.269531h16v32h-16zm0 0"/><path d="m0 411.269531h16v96h-16zm0 0"/><path d="m32 443.269531h16v64h-16zm0 0"/><path d="m64 475.269531h16v32h-16zm0 0"/></svg>